# xmcd CD database file
#
# Track frame offsets:
#	150
#	20812
#	30602
#	42039
#	56064
#	62243
#	73449
#	84680
#	93149
#	102926
#	115934
#	133427
#	145161
#	156977
#	167100
#	178161
#	192638
#	203415
#	216855
#	232774
#	244974
#
# Disc length: 3451 seconds
#
# Revision: 0
# Processed by: cddbd v1.5.2PL0 Copyright (c) Steve Scherf et al.
# Submitted via: jetAudio 7
#
DISCID=3d0d7915
DTITLE=Chet Atkins - Merle Travis - Doc Watson - The Atkins-Travis Trav
DTITLE=eling Show and Reflections
DYEAR=2008
DGENRE=Easy Listening
TTITLE0=Down South Blues
TTITLE1=Mutual Admiration
TTITLE2=Muskrat Ramble
TTITLE3=If I Had You
TTITLE4=Cannonball Rag
TTITLE5=Boogie For Cecil
TTITLE6=Is Anything Better Than This
TTITLE7=Dance Of The Golden Rod
TTITLE8=Who's Sorry Now
TTITLE9=Nine Pound Hammer
TTITLE10=I'll See You In My Dreams
TTITLE11=Dill Pickle Rag
TTITLE12=Me And Chet Made A Record
TTITLE13=Flatt Did It
TTITLE14=Tennessee Rag - Beaumont Rag
TTITLE15=Texas Gales - Old Joe Clark
TTITLE16=You're Gonna Be Sorry
TTITLE17=Goodnight Waltz
TTITLE18=Don't Monkey 'Round My Widder
TTITLE19=Black And White - Ragtime Annie
TTITLE20=On My Way To Canaan's Land
EXTD=
EXTT0=
EXTT1=
EXTT2=
EXTT3=
EXTT4=
EXTT5=
EXTT6=
EXTT7=
EXTT8=
EXTT9=
EXTT10=
EXTT11=
EXTT12=
EXTT13=
EXTT14=
EXTT15=
EXTT16=
EXTT17=
EXTT18=
EXTT19=
EXTT20=
PLAYORDER=
